. 
 
http://www.torrenting.com          :     Once & For all ;)


               www . Torrenting . Com 

(((((((((((((= Enjoy No RAR releases =))))))))))))))))))))


...................................NFO:....................................

.Chronicle 2012 TS NEW SOURCE XViD - HOPE

Plot: 
Three high school friends gain superpowers after making an incredible discovery. Soon, though, they find their lives spinning out of control and their bond tested as they embrace their darker sides. 

IMDB: 
www.imdb.com/title/tt1706593/

Information:
Format                           : AVI
Format/Info                      : Audio Video Interleave
File size                        : 796 MiB
Duration                         : 1h 15mn
Overall bit rate                 : 1 469 Kbps
Writing application              : Lavf51.12.1
Writing library                  : VirtualDub build 31536/release

Video
ID                               : 0
Format                           : MPEG-4 Visual
Format profile                   : Advanced Simple@L5
Format settings, BVOP            : 2
Format settings, QPel            : No
Format settings, GMC             : No warppoints
Format settings, Matrix          : Default (H.263)
Muxing mode                      : Packed bitstream
Codec ID                         : XVID
Codec ID/Hint                    : XviD
Duration                         : 1h 15mn
Bit rate                         : 1 268 Kbps
Width                            : 720 pixels
Height                           : 304 pixels
Display aspect ratio             : 2.35:1
Frame rate                       : 25.000 fps
Color space                      : YUV
Chroma subsampling               : 4:2:0
Bit depth                        : 8 bits
Scan type                        : Progressive
Compression mode                 : Lossy
Bits/(Pixel*Frame)               : 0.232
Stream size                      : 687 MiB (86%)
Writing library                  : XviD 64

Audio
ID                               : 1
Format                           : MPEG Audio
Format version                   : Version 1
Format profile                   : Layer 3
Mode                             : Joint stereo
Mode extension                   : MS Stereo
Codec ID                         : 55
Codec ID/Hint                    : MP3
Duration                         : 1h 15mn
Bit rate mode                    : Constant
Bit rate                         : 192 Kbps
Channel(s)                       : 2 channels
Sampling rate                    : 48.0 KHz
Compression mode                 : Lossy
Stream size                      : 103 MiB (13%)
Alignment                        : Split accross interleaves
Interleave, duration             : 40 ms (1.01 video frame)
Interleave, preload duration     : 500 ms

Screene:
[IMG]http://img819.imageshack.us/img819/3775/chronicle2012tsnewsourc.jpg[/IMG]
[IMG]http://img43.imageshack.us/img43/3775/chronicle2012tsnewsourc.jpg[/IMG]
[IMG]http://img848.imageshack.us/img848/3775/chronicle2012tsnewsourc.jpg[/IMG]
[IMG]http://img341.imageshack.us/img341/3775/chronicle2012tsnewsourc.jpg[/IMG]
[IMG]http://img190.imageshack.us/img190/3775/chronicle2012tsnewsourc.jpg[/IMG]
[IMG]http://img194.imageshack.us/img194/3775/chronicle2012tsnewsourc.jpg[/IMG]
[IMG]http://img88.imageshack.us/img88/3775/chronicle2012tsnewsourc.jpg[/IMG]
[IMG]http://img402.imageshack.us/img402/3775/chronicle2012tsnewsourc.jpg[/IMG]

Notes: 
Newsrc from the guys from NoZGT :D nice video 
same audio as the last TS, ran some filters to 
tidy alittle and resized to 720x304 ;) some 
scenes are still alittle bright, and the dark 
ones are still alittle dark lol also theres
abit of CAM audio on this not much but... 
So overall a nice TS, if i get source files 
from NoZGT a v2 will come till then here we go 
... 2 Samples Included so check them out


Video Source > NoZGT... Thanks 
Audio Source > Mistere/NoZGT... Thanks 

Enjoy!

Respects to 26K, DTRG, JCRG, GooN, ViSiON, SANTi, INSPiRAL, REFiLL, SiC... 
And many others in the P2P and Scene world